<?xml version="1.0" encoding="UTF-8"?>
<svg width="13px" height="13px" viewBox="0 0 13 13" version="1.1" xmlns="http://www.w3.org/2000/svg" xmlns:xlink="http://www.w3.org/1999/xlink">
    <title>cluster_management_icon</title>
    <g id="New-UI" stroke="none" stroke-width="1" fill="none" fill-rule="evenodd">
        <g id="02_Open5GCloud_Cluster_Screen" transform="translate(-22.000000, -79.000000)" fill="#131725">
            <g id="sidebar" transform="translate(0.000000, 12.000000)">
                <g id="menu-side-bar" transform="translate(0.000000, 57.000000)">
                    <g id="dashboard-Copy" transform="translate(22.919922, 9.000000)">
                        <g id="cluster_management_icon" transform="translate(0.000000, 1.800049)">
                            <path d="M4.30769255,0 L0.92307705,0 C0.413275626,0 0,0.413275626 0,0.92307705 L0,4.30769255 C0,4.81749382 0.413275626,5.2307696 0.92307705,5.2307696 L4.30769255,5.2307696 C4.81749382,5.2307696 5.2307696,4.81749382 5.2307696,4.30769255 L5.2307696,0.92307705 C5.2307696,0.413275626 4.81749382,0 4.30769255,0 Z M4.30746696,4.3077111 L0.92285156,4.3077111 L0.92285156,0.9230957 L4.30746696,0.9230957 L4.30746696,4.3077111 Z" id="Shape"></path>
                            <path d="M11.0772233,0 L7.69260814,0 C7.18280678,0 6.7695312,0.413275626 6.7695312,0.92307705 L6.7695312,4.30769255 C6.7695312,4.81749382 7.18280678,5.2307696 7.69260814,5.2307696 L11.0772233,5.2307696 C11.5870245,5.2307696 12.0003002,4.81749382 12.0003002,4.30769255 L12.0003002,0.92307705 C12.0003002,0.413275626 11.5870245,0 11.0772233,0 Z M11.076998,4.3077111 L7.69238276,4.3077111 L7.69238276,0.9230957 L11.076998,0.9230957 L11.076998,4.3077111 Z" id="Shape"></path>
                            <path d="M4.30769255,6.769287 L0.92307705,6.769287 C0.413275626,6.769287 0,7.18256258 0,7.69236394 L0,11.0769791 C0,11.5867803 0.413275626,12.000056 0.92307705,12.000056 L4.30769255,12.000056 C4.81749382,12.000056 5.2307696,11.5867803 5.2307696,11.0769791 L5.2307696,7.69236394 C5.2307696,7.18256258 4.81749382,6.769287 4.30769255,6.769287 Z M4.30746696,11.0769979 L0.92285156,11.0769979 L0.92285156,7.6923827 L4.30746696,7.6923827 L4.30746696,11.0769979 Z" id="Shape"></path>
                            <path d="M11.0772233,6.769287 L7.69260814,6.769287 C7.18280678,6.769287 6.7695312,7.18256258 6.7695312,7.69236394 L6.7695312,11.0769791 C6.7695312,11.5867803 7.18280678,12.000056 7.69260814,12.000056 L11.0772233,12.000056 C11.5870245,12.000056 12.0003002,11.5867803 12.0003002,11.0769791 L12.0003002,7.69236394 C12.0003002,7.18256258 11.5870245,6.769287 11.0772233,6.769287 Z M11.076998,11.0769979 L7.69238276,11.0769979 L7.69238276,7.6923827 L11.076998,7.6923827 L11.076998,11.0769979 Z" id="Shape"></path>
                        </g>
                    </g>
                </g>
            </g>
        </g>
    </g>
</svg>