<?xml version="1.0" encoding="utf-8"?>
<svg width="12px" height="12px" viewBox="0 0 12 12" version="1.1" xmlns:xlink="http://www.w3.org/1999/xlink" xmlns="http://www.w3.org/2000/svg">
  <defs>
    <path d="M2.63415 3.80488L10.5366 3.80488C11.0215 3.80488 11.4146 3.41176 11.4146 2.92683L11.4146 0.878049C11.4146 0.393116 11.0215 0 10.5366 0L2.63415 0C2.14921 0 1.7561 0.393116 1.7561 0.878049L1.7561 1.46341L0.439024 1.46341C0.196558 1.46341 0 1.65997 0 1.90244L0 10.3902C-1.66371e-14 10.5067 0.0462542 10.6183 0.128587 10.7007C0.21092 10.783 0.322588 10.8293 0.439024 10.8293L1.7561 10.8293L1.7561 11.122C1.7561 11.6069 2.14921 12 2.63415 12L10.5366 12C11.0215 12 11.4146 11.6069 11.4146 11.122L11.4146 9.07317C11.4146 8.58824 11.0215 8.19512 10.5366 8.19512L2.63415 8.19512C2.14921 8.19512 1.7561 8.58824 1.7561 9.07317L1.7561 9.95122L0.878049 9.95122L0.878049 6.43902L1.7561 6.43902L1.7561 7.02439C1.7561 7.50932 2.14921 7.90244 2.63415 7.90244L10.5366 7.90244C11.0215 7.90244 11.4146 7.50932 11.4146 7.02439L11.4146 4.97561C11.4146 4.49068 11.0215 4.09756 10.5366 4.09756L2.63415 4.09756C2.14921 4.09756 1.7561 4.49068 1.7561 4.97561L1.7561 5.56098L0.878049 5.56098L0.878049 2.34146L1.7561 2.34146L1.7561 2.92683C1.7561 3.41176 2.14921 3.80488 2.63415 3.80488L2.63415 3.80488ZM2.63428 0.878052L10.5367 0.878052L10.5367 2.92683L2.63428 2.92683L2.63428 0.878052ZM2.63428 9.07312L10.5367 9.07312L10.5367 11.1219L2.63428 11.1219L2.63428 9.07312ZM2.63428 4.97559L10.5367 4.97559L10.5367 7.02437L2.63428 7.02437L2.63428 4.97559Z" id="path_1" />
    <clipPath id="clip_1">
      <use xlink:href="#path_1" />
    </clipPath>
  </defs>
  <g id="Server">
    <path d="M3.65875 2.34155C3.90122 2.34155 4.09778 2.14499 4.09778 1.90253C4.09778 1.66006 3.90122 1.4635 3.65875 1.4635C3.41628 1.4635 3.21973 1.66006 3.21973 1.90253C3.21973 2.14499 3.41628 2.34155 3.65875 2.34155Z" id="Oval" fill="#1F263E" fill-rule="evenodd" stroke="none" />
    <g id="Shape">
      <g clip-path="url(#clip_1)">
        <use xlink:href="#path_1" fill="none" stroke="#1F263E" stroke-width="2" />
      </g>
    </g>
    <path d="M3.65875 6.43908C3.90122 6.43908 4.09778 6.24253 4.09778 6.00006C4.09778 5.75759 3.90122 5.56104 3.65875 5.56104C3.41628 5.56104 3.21973 5.75759 3.21973 6.00006C3.21973 6.24253 3.41628 6.43908 3.65875 6.43908Z" id="Oval" fill="#1F263E" fill-rule="evenodd" stroke="none" />
    <path d="M3.65875 10.5365C3.90122 10.5365 4.09778 10.3399 4.09778 10.0975C4.09778 9.85501 3.90122 9.65845 3.65875 9.65845C3.41628 9.65845 3.21973 9.85501 3.21973 10.0975C3.21973 10.3399 3.41628 10.5365 3.65875 10.5365Z" id="Oval" fill="#1F263E" fill-rule="evenodd" stroke="none" />
  </g>
</svg>