<?xml version="1.0" standalone="no"?>
<!DOCTYPE svg PUBLIC "-//W3C//DTD SVG 20010904//EN"
 "http://www.w3.org/TR/2001/REC-SVG-20010904/DTD/svg10.dtd">
<svg version="1.0" xmlns="http://www.w3.org/2000/svg"
 width="64.000000pt" height="64.000000pt" viewBox="0 0 64.000000 64.000000"
 preserveAspectRatio="xMidYMid meet">

<g transform="translate(0.000000,64.000000) scale(0.100000,-0.100000)"
fill="#000000" stroke="none">
<path d="M240 598 c-98 -50 -128 -168 -67 -259 24 -36 84 -76 95 -64 4 4 0 10
-8 13 -8 3 -32 21 -52 42 -64 64 -64 157 1 221 112 112 296 12 267 -145 -9
-46 -44 -90 -61 -76 -9 8 -17 4 -29 -14 -21 -33 -20 -46 3 -46 11 0 27 -3 37
-7 14 -5 16 -2 12 15 -4 13 0 26 10 34 23 20 52 89 52 128 0 41 -29 108 -56
132 -29 25 -89 48 -127 48 -18 0 -53 -10 -77 -22z"/>
<path d="M280 540 c-6 -12 -21 -20 -36 -20 -31 0 -54 -41 -34 -65 10 -12 10
-18 0 -30 -20 -24 3 -65 34 -65 15 0 30 -8 36 -20 15 -27 65 -27 80 0 6 12 21
20 36 20 31 0 54 41 34 65 -10 12 -10 18 0 30 20 24 -3 65 -34 65 -15 0 -30 8
-36 20 -7 13 -21 20 -40 20 -19 0 -33 -7 -40 -20z m70 -20 c11 -11 29 -20 39
-20 24 0 31 -19 17 -42 -8 -13 -8 -23 0 -35 14 -24 7 -43 -17 -43 -10 0 -28
-9 -39 -20 -11 -11 -24 -20 -30 -20 -5 0 -19 9 -30 20 -11 11 -29 20 -39 20
-24 0 -31 19 -17 43 8 12 8 22 -1 35 -14 24 -5 37 30 46 15 4 30 13 33 21 8
21 30 19 54 -5z"/>
<path d="M282 478 c-15 -15 -15 -61 0 -76 7 -7 24 -12 38 -12 33 0 50 17 50
50 0 33 -17 50 -50 50 -14 0 -31 -5 -38 -12z m63 -38 c0 -18 -6 -26 -23 -28
-24 -4 -38 18 -28 44 3 9 15 14 28 12 17 -2 23 -10 23 -28z"/>
<path d="M297 261 c-21 -36 -21 -41 -2 -41 8 0 15 -7 15 -15 0 -12 -18 -15
-100 -15 l-100 0 0 -25 c0 -14 5 -25 10 -25 6 0 10 7 10 15 0 12 17 15 90 15
73 0 90 -3 90 -15 0 -8 5 -15 10 -15 6 0 10 7 10 15 0 12 17 15 90 15 73 0 90
-3 90 -15 0 -8 5 -15 10 -15 6 0 10 11 10 25 l0 25 -100 0 c-82 0 -100 3 -100
15 0 8 7 15 15 15 8 0 15 3 15 6 0 10 -34 64 -40 64 -3 0 -13 -13 -23 -29z"/>
<path d="M86 104 c-31 -30 -9 -84 34 -84 24 0 50 26 50 50 0 24 -26 50 -50 50
-10 0 -26 -7 -34 -16z m59 -34 c0 -18 -6 -26 -23 -28 -24 -4 -38 18 -28 44 3
9 15 14 28 12 17 -2 23 -10 23 -28z"/>
<path d="M286 104 c-31 -30 -9 -84 34 -84 10 0 26 7 34 16 31 30 9 84 -34 84
-10 0 -26 -7 -34 -16z m59 -34 c0 -18 -6 -26 -23 -28 -24 -4 -38 18 -28 44 3
9 15 14 28 12 17 -2 23 -10 23 -28z"/>
<path d="M486 104 c-31 -30 -9 -84 34 -84 24 0 50 26 50 50 0 24 -26 50 -50
50 -10 0 -26 -7 -34 -16z m59 -34 c0 -18 -6 -26 -23 -28 -24 -4 -38 18 -28 44
3 9 15 14 28 12 17 -2 23 -10 23 -28z"/>
</g>
</svg>
