<?xml version="1.0" encoding="UTF-8"?>
<svg width="15px" height="15px" viewBox="0 0 15 15" version="1.1" xmlns="http://www.w3.org/2000/svg" xmlns:xlink="http://www.w3.org/1999/xlink">
    <title>discovery_load_balancing_icon</title>
    <g id="New-UI" stroke="none" stroke-width="1" fill="none" fill-rule="evenodd">
        <g id="02_Open5GCloud_Cluster_Screen" transform="translate(-22.000000, -478.000000)" fill="#1F263E">
            <g id="sidebar" transform="translate(0.000000, 12.000000)">
                <g id="menu-side-bar" transform="translate(0.000000, 57.000000)">
                    <g id="history" transform="translate(22.400390, 403.000000)">
                        <g id="discovery_load_balancing_icon" transform="translate(0.000000, 6.900024)">
                            <path d="M6.76963955,1.5384454 C7.02453775,1.5384454 7.2311736,1.33180972 7.2311736,1.07691178 L7.2311736,0.46153362 C7.2311736,0.206635648 7.02453775,0 6.76963955,0 C6.51474134,0 6.3081055,0.206635648 6.3081055,0.46153362 L6.3081055,1.07691178 C6.3081055,1.33180972 6.51474134,1.5384454 6.76963955,1.5384454 Z" id="Shape"></path>
                            <path d="M13.3840402,5.692383 L12.7686623,5.692383 C12.5137645,5.692383 12.307129,5.89901849 12.307129,6.15391628 C12.307129,6.40881406 12.5137645,6.61544956 12.7686623,6.61544956 L13.3840402,6.61544956 C13.6389379,6.61544956 13.8455735,6.40881406 13.8455735,6.15391628 C13.8455735,5.89901849 13.6389379,5.692383 13.3840402,5.692383 Z" id="Shape"></path>
                            <path d="M1.5384454,6.15391628 C1.5384454,5.89901849 1.33180972,5.692383 1.07691178,5.692383 L0.46153362,5.692383 C0.206635648,5.692383 0,5.89901849 0,6.15391628 C0,6.40881406 0.206635648,6.61544956 0.46153362,6.61544956 L1.07691178,6.61544956 C1.33180972,6.61544956 1.5384454,6.40881406 1.5384454,6.15391628 Z" id="Shape"></path>
                            <path d="M11.0558686,3.0952743 C11.1782339,3.0951666 11.295548,3.04647018 11.3820194,2.9598911 L11.8189384,2.5260496 C11.9883886,2.34419936 11.9833885,2.06081776 11.8076289,1.88505835 C11.6318692,1.70929895 11.3484873,1.70429901 11.1666368,1.87374882 L10.7297178,2.30759037 C10.5978912,2.43958083 10.5584836,2.63795119 10.6298499,2.81030718 C10.7012161,2.98266314 10.8693216,3.09511023 11.0558686,3.0952743 Z" id="Shape"></path>
                            <path d="M2.80830544,2.30759063 L2.37138684,1.87374889 C2.18953651,1.70429899 1.90615479,1.70929893 1.73039532,1.88505843 C1.55463583,2.06081793 1.54963589,2.34419965 1.71908578,2.52604999 L2.15600441,2.95989175 C2.33785472,3.12934154 2.62123638,3.12434161 2.79699595,2.94858221 C2.97275532,2.77282268 2.97775529,2.48944091 2.80830544,2.30759063 L2.80830544,2.30759063 Z" id="Shape"></path>
                            <path d="M11.9998046,9.69235203 C11.8179544,9.52290207 11.5345728,9.52790201 11.3588134,9.70366158 C11.1830541,9.87942115 11.1780541,10.162803 11.3475039,10.3446534 L11.7844223,10.7784953 C11.9662725,10.9479452 12.249654,10.9429452 12.4254134,10.7671858 C12.6011727,10.5914262 12.6061727,10.3080443 12.4367229,10.1261939 L11.9998046,9.69235203 Z" id="Shape"></path>
                            <path d="M1.53832859,9.69235203 L1.10141002,10.1261939 C0.931960157,10.3080443 0.936960098,10.5914262 1.11271956,10.7671858 C1.28847901,10.9429452 1.57186068,10.9479452 1.75371098,10.7784953 L2.19062952,10.3446534 C2.36007935,10.162803 2.35507938,9.87942115 2.17932003,9.70366158 C2.00356049,9.52790201 1.72017887,9.52290207 1.53832859,9.69235203 Z" id="Shape"></path>
                            <path d="M11.2296755,6.92319892 C11.2326282,4.80984133 9.70202195,3.0064504 7.61629032,2.6658406 C5.53055868,2.32523081 3.50576468,3.54800827 2.83625477,5.55251486 C2.16674485,7.55702087 3.05027248,9.75118403 4.92204395,10.7323884 C4.82607534,10.8809599 4.77481165,11.0539745 4.77435328,11.230845 L4.77435328,12.1539118 C4.77435328,13.1735033 5.60089601,14.0000459 6.62048802,14.0000459 L7.23586653,14.0000459 C8.25545872,14.0000459 9.08200128,13.1735033 9.08200128,12.1539118 L9.08200128,11.230845 C9.08154265,11.0539745 9.03027939,10.8809599 8.93431026,10.7323884 C10.3464004,9.98633398 11.2298366,8.52025715 11.2296755,6.92319892 Z M8.1524309,11.2308349 L8.1524309,11.5385241 L6.61398528,11.5385241 C6.35908728,11.5385241 6.15245159,11.7451598 6.15245159,12.0000578 C6.15245159,12.254956 6.35908728,12.4615917 6.61398528,12.4615917 L8.09704686,12.4615917 C7.96697177,12.8295044 7.61959171,13.0758732 7.22936353,13.07697 L6.61398528,13.07697 C6.10418924,13.07697 5.6909179,12.6636986 5.6909179,12.1539025 L5.6909179,11.2308349 L8.1524309,11.2308349 Z M6.9221771,10.3077343 L6.9221771,10.3077343 C5.05292549,10.3077343 3.5375976,8.79240527 3.5375976,6.92315358 C3.5375976,5.05390204 5.05292549,3.53857426 6.9221771,3.53857426 C8.79142864,3.53857426 10.3067566,5.05390204 10.3067566,6.92315358 C10.3067566,7.82133312 9.94974608,8.6826807 9.31434848,9.31750092 C8.67895121,9.95232154 7.81727924,10.3085493 6.91910018,10.3077343 L6.9221771,10.3077343 Z" id="Shape"></path>
                            <path d="M6.92295958,4.3078613 C6.66806163,4.3078613 6.461426,4.51449693 6.461426,4.76939487 C6.461426,5.02429282 6.66806163,5.23092845 6.92295958,5.23092845 C7.85688304,5.23262188 8.61355601,5.98929476 8.61524935,6.92321822 C8.61524935,7.17811623 8.82188501,7.3847518 9.07678292,7.3847518 C9.33168093,7.3847518 9.5383165,7.17811623 9.5383165,6.92321822 C9.53662101,5.47949936 8.36667844,4.3095568 6.92295958,4.3078613 L6.92295958,4.3078613 Z" id="Shape"></path>
                        </g>
                    </g>
                </g>
            </g>
        </g>
    </g>
</svg>