<?xml version="1.0" standalone="no"?>
<!DOCTYPE svg PUBLIC "-//W3C//DTD SVG 20010904//EN"
 "http://www.w3.org/TR/2001/REC-SVG-20010904/DTD/svg10.dtd">
<svg version="1.0" xmlns="http://www.w3.org/2000/svg"
 width="64.000000pt" height="64.000000pt" viewBox="0 0 64.000000 64.000000"
 preserveAspectRatio="xMidYMid meet">

<g transform="translate(0.000000,64.000000) scale(0.100000,-0.100000)"
fill="#000000" stroke="none">
<path d="M50 545 c0 -37 -4 -65 -10 -65 -5 0 -10 -9 -10 -19 0 -30 39 -51 92
-51 47 0 47 0 38 -26 -14 -36 -12 -79 4 -119 l15 -34 -62 -3 -62 -3 -3 -67
c-2 -38 -7 -68 -12 -68 -14 0 -12 -34 2 -48 17 -17 229 -17 246 0 15 15 16 48
2 48 -5 0 -10 16 -10 35 0 30 3 35 24 35 13 0 31 3 40 6 13 5 16 -2 16 -35 0
-23 -4 -41 -10 -41 -14 0 -13 -33 2 -48 17 -17 229 -17 246 0 14 14 16 48 2
48 -5 0 -10 30 -12 67 l-3 68 -66 3 -66 3 14 42 c14 40 13 81 -2 120 -6 15 -1
17 47 17 60 0 98 20 98 51 0 10 -4 19 -10 19 -6 0 -10 28 -10 65 l0 65 -115 0
-115 0 0 -60 0 -60 -40 0 -40 0 0 60 0 60 -115 0 -115 0 0 -65z m200 -10 l0
-55 -85 0 -85 0 0 55 0 55 85 0 85 0 0 -55z m310 0 l0 -55 -85 0 -85 0 0 55 0
55 85 0 85 0 0 -55z m-260 -105 c0 -19 -5 -30 -14 -30 -23 0 -27 15 -10 38 20
29 24 28 24 -8z m60 -17 c0 -7 -7 -13 -15 -13 -10 0 -15 10 -15 33 1 30 1 31
15 13 8 -11 15 -26 15 -33z m-192 30 c-21 -2 -55 -2 -75 0 -21 2 -4 4 37 4 41
0 58 -2 38 -4z m75 -8 c-3 -9 -8 -14 -10 -11 -3 3 -2 9 2 15 9 16 15 13 8 -4z
m157 -6 c0 -6 -4 -7 -10 -4 -5 3 -10 11 -10 16 0 6 5 7 10 4 6 -3 10 -11 10
-16z m148 14 c-21 -2 -57 -2 -80 0 -24 2 -7 4 37 4 44 0 63 -2 43 -4z m-323
-43 c11 -18 -7 -60 -26 -60 -21 0 -25 21 -9 51 12 21 25 25 35 9z m213 -15
c17 -37 15 -45 -13 -45 -21 0 -25 5 -25 28 0 48 20 56 38 17z m-154 -11 c25
-10 19 -34 -9 -34 -18 0 -25 5 -25 20 0 21 8 24 34 14z m96 -14 c0 -15 -7 -20
-25 -20 -41 0 -30 37 13 39 6 1 12 -8 12 -19z m-156 -77 c9 -33 -13 -51 -31
-26 -19 25 -16 53 6 53 12 0 21 -10 25 -27z m76 12 c0 -8 -4 -15 -9 -15 -5 0
-16 -3 -25 -6 -12 -4 -16 0 -16 15 0 16 6 21 25 21 16 0 25 -6 25 -15z m80 -6
c0 -15 -4 -19 -16 -15 -9 3 -20 6 -25 6 -5 0 -9 7 -9 15 0 9 9 15 25 15 19 0
25 -5 25 -21z m70 11 c0 -5 -5 -20 -11 -34 -15 -32 -39 -23 -39 15 0 24 4 29
25 29 14 0 25 -4 25 -10z m-150 -82 l-1 -33 -19 24 c-25 30 -25 41 0 41 16 0
20 -7 20 -32z m60 23 c0 -17 -12 -41 -21 -41 -5 0 -9 11 -9 25 0 16 6 25 15
25 8 0 15 -4 15 -9z m-115 -21 c3 -5 1 -10 -4 -10 -6 0 -11 5 -11 10 0 6 2 10
4 10 3 0 8 -4 11 -10z m155 0 c0 -5 -5 -10 -11 -10 -5 0 -7 5 -4 10 3 6 8 10
11 10 2 0 4 -4 4 -10z m-167 -34 c11 -9 17 -27 17 -55 l0 -41 -85 0 -85 0 0
55 0 55 68 0 c40 -1 74 -6 85 -14z m327 -41 l0 -55 -85 0 -85 0 0 43 c0 24 5
48 12 55 7 7 42 12 85 12 l73 0 0 -55z m-347 -92 c-29 -2 -77 -2 -105 0 -29 2
-6 3 52 3 58 0 81 -1 53 -3z m320 0 c-29 -2 -77 -2 -105 0 -29 2 -6 3 52 3 58
0 81 -1 53 -3z"/>
<path d="M290 590 c0 -5 5 -10 10 -10 6 0 10 5 10 10 0 6 -4 10 -10 10 -5 0
-10 -4 -10 -10z"/>
<path d="M330 590 c0 -5 5 -10 10 -10 6 0 10 5 10 10 0 6 -4 10 -10 10 -5 0
-10 -4 -10 -10z"/>
<path d="M80 374 c0 -8 5 -12 10 -9 6 3 10 10 10 16 0 5 -4 9 -10 9 -5 0 -10
-7 -10 -16z"/>
<path d="M530 374 c0 -8 5 -12 10 -9 6 3 10 10 10 16 0 5 -4 9 -10 9 -5 0 -10
-7 -10 -16z"/>
<path d="M80 340 c0 -5 5 -10 10 -10 6 0 10 5 10 10 0 6 -4 10 -10 10 -5 0
-10 -4 -10 -10z"/>
<path d="M530 340 c0 -5 5 -10 10 -10 6 0 10 5 10 10 0 6 -4 10 -10 10 -5 0
-10 -4 -10 -10z"/>
<path d="M80 300 c0 -5 5 -10 10 -10 6 0 10 5 10 10 0 6 -4 10 -10 10 -5 0
-10 -4 -10 -10z"/>
<path d="M530 300 c0 -5 5 -10 10 -10 6 0 10 5 10 10 0 6 -4 10 -10 10 -5 0
-10 -4 -10 -10z"/>
<path d="M80 266 c0 -9 5 -16 10 -16 6 0 10 4 10 9 0 6 -4 13 -10 16 -5 3 -10
-1 -10 -9z"/>
<path d="M530 266 c0 -9 5 -16 10 -16 6 0 10 4 10 9 0 6 -4 13 -10 16 -5 3
-10 -1 -10 -9z"/>
<path d="M290 131 c0 -6 5 -13 10 -16 6 -3 10 1 10 9 0 9 -4 16 -10 16 -5 0
-10 -4 -10 -9z"/>
<path d="M330 124 c0 -8 5 -12 10 -9 6 3 10 10 10 16 0 5 -4 9 -10 9 -5 0 -10
-7 -10 -16z"/>
</g>
</svg>
