<?xml version="1.0" encoding="UTF-8"?>
<svg width="12px" height="13px" viewBox="0 0 12 13" version="1.1" xmlns="http://www.w3.org/2000/svg" xmlns:xlink="http://www.w3.org/1999/xlink">
    <title>orchestration_icon</title>
    <defs>
        <path d="M6.66753593,0.156704162 L10.667536,2.15670425 C11.1772789,2.41000172 11.4997335,2.92999616 11.500036,3.49946972 L11.500036,8.26473536 C11.4997335,8.83394326 11.1772789,9.35393746 10.6686428,9.60668362 L6.66878609,11.6066119 C6.24626041,11.8180443 5.74881205,11.8180443 5.32642937,11.6066837 L1.32504835,9.60598994 C0.815792696,9.34939221 0.496079908,8.82622576 0.5,8.25947043 L0.5,3.4992043 C0.500338416,2.92999616 0.822793108,2.41000172 1.33142947,2.15725592 L5.33253615,0.156704162 C5.75301043,-0.0522347186 6.24706154,-0.0522347186 6.66753593,0.156704162 Z M1.5,3.688 L1.500012,8.26294861 C1.49870134,8.45302705 1.60527228,8.62741568 1.77364311,8.71225525 L5.5,10.576 L5.5,5.688 L1.5,3.688 Z M10.5,3.688 L6.5,5.688 L6.5,10.572 L10.2225371,8.71170341 C10.3924512,8.62727125 10.4999362,8.45393962 10.500037,8.26446886 L10.5,3.688 Z M5.77864351,1.05168304 L2.12,2.88 L6.00003602,4.82045257 L9.879,2.88 L6.22207762,1.05200692 C6.08201878,0.982588529 5.91754287,0.982663863 5.77864351,1.05168304 Z" id="path-1"></path>
    </defs>
    <g id="New-UI" stroke="none" stroke-width="1" fill="none" fill-rule="evenodd">
        <g id="02_Open5GCloud_Cluster_Screen" transform="translate(-23.000000, -583.000000)">
            <g id="sidebar" transform="translate(0.000000, 12.000000)">
                <g id="menu-side-bar" transform="translate(0.000000, 57.000000)">
                    <g id="payment-Copy" transform="translate(22.973632, 512.000000)">
                        <g id="box" transform="translate(0.000000, 2.400024)">
                            <mask id="mask-2" fill="white">
                                <use xlink:href="#path-1"></use>
                            </mask>
                            <use id="Combined-Shape" fill="#000000" xlink:href="#path-1"></use>
                            <g id="Group" mask="url(#mask-2)" fill="#232633">
                                <g id="COLOR/-black">
                                    <rect id="Rectangle" x="0" y="0" width="12" height="12"></rect>
                                </g>
                            </g>
                        </g>
                    </g>
                </g>
            </g>
        </g>
    </g>
</svg>