<?xml version="1.0" standalone="no"?>
<!DOCTYPE svg PUBLIC "-//W3C//DTD SVG 20010904//EN"
 "http://www.w3.org/TR/2001/REC-SVG-20010904/DTD/svg10.dtd">
<svg version="1.0" xmlns="http://www.w3.org/2000/svg"
 width="50.000000pt" height="50.000000pt" viewBox="0 0 50.000000 50.000000"
 preserveAspectRatio="xMidYMid meet">

<g transform="translate(0.000000,50.000000) scale(0.100000,-0.100000)"
fill="#000000" stroke="none">
<path d="M346 475 c-4 -12 -11 -13 -31 -5 -63 24 -167 -1 -224 -53 -36 -33
-71 -115 -71 -167 0 -49 29 -122 63 -159 33 -36 115 -71 167 -71 52 0 134 35
167 71 52 57 77 161 53 223 -7 20 -6 27 6 34 14 8 14 13 4 33 -18 34 -61 78
-92 95 -34 17 -35 17 -42 -1z m-106 -115 l0 -100 -100 0 c-112 0 -112 1 -84
68 20 49 60 90 109 113 73 34 75 32 75 -81z m88 85 c3 -2 -10 -41 -28 -85 -18
-44 -30 -83 -27 -87 4 -3 41 9 84 26 43 17 81 31 85 31 12 0 21 -68 14 -113
-4 -23 -16 -58 -27 -76 l-21 -34 -74 74 -74 73 0 104 0 105 32 -7 c17 -3 34
-8 36 -11z m92 -21 c22 -20 40 -42 40 -49 0 -11 -149 -80 -157 -72 -6 6 59
157 68 157 5 0 27 -16 49 -36z m-101 -258 l73 -74 -25 -16 c-124 -82 -290 -13
-322 132 l-7 32 104 0 104 0 73 -74z"/>
</g>
</svg>
