<?xml version="1.0" encoding="utf-8"?>
<svg width="6px" height="6px" viewBox="0 0 6 6" version="1.1" xmlns:xlink="http://www.w3.org/1999/xlink" xmlns="http://www.w3.org/2000/svg">
  <g id="Group">
    <path d="M3.01347 0.0662052C2.91628 -0.0243605 2.76482 -0.0216882 2.67088 0.0722498C2.57694 0.166188 2.57427 0.317647 2.66484 0.41484L5.29604 3.04605L2.66484 5.58516C2.57427 5.68235 2.57694 5.83381 2.67088 5.92775C2.76482 6.02169 2.91628 6.02436 3.01347 5.93379L5.94727 3.04605L3.01347 0.0662052Z" id="Shape" fill="#131725" fill-rule="evenodd" stroke="none" />
    <path d="M0.41484 0.0662052C0.317647 -0.0243605 0.166188 -0.0216882 0.0722498 0.0722498C-0.0216882 0.166188 -0.0243605 0.317647 0.0662052 0.41484L2.69741 3.04605L0.0662052 5.58516C-0.0243605 5.68235 -0.0216882 5.83381 0.0722498 5.92775C0.166188 6.02169 0.317647 6.02436 0.41484 5.93379L3.34863 3.04605L0.41484 0.0662052Z" id="Shape-Copy" fill="#131725" fill-rule="evenodd" stroke="none" />
  </g>
</svg>