<?xml version="1.0" encoding="UTF-8"?>
<svg width="12px" height="13px" viewBox="0 0 12 13" version="1.1" xmlns="http://www.w3.org/2000/svg" xmlns:xlink="http://www.w3.org/1999/xlink">
    <title>security_icon</title>
    <g id="New-UI" stroke="none" stroke-width="1" fill="none" fill-rule="evenodd">
        <g id="02_Open5GCloud_Cluster_Screen" transform="translate(-24.000000, -614.000000)" fill="#1F263E">
            <g id="sidebar" transform="translate(0.000000, 12.000000)">
                <g id="menu-side-bar" transform="translate(0.000000, 57.000000)">
                    <g id="payment-Copy-2" transform="translate(24.111328, 542.999880)">
                        <g id="Group" transform="translate(0.000000, 2.400024)">
                            <path d="M9.83599251,1.94310646 L5.24224254,0.0358330087 C5.12716432,-0.0119326171 4.99781239,-0.0119560518 4.88275776,0.0358330087 L0.289007848,1.94310646 C0.114046896,2.01576257 0,2.18657524 0,2.37602054 L0,4.69457504 C0,7.88706728 1.92958595,10.7587935 4.88535978,11.965239 C4.9988907,12.0115758 5.12608601,12.0115758 5.23964093,11.965239 C8.19536738,10.7588175 10.125,7.88709044 10.125,4.69457504 L10.125,2.37602054 C10.125,2.18657524 10.0109773,2.01576257 9.83599251,1.94310646 L9.83599251,1.94310646 Z M9.1875,4.69457701 C9.1875,7.40852195 7.59375015,9.90688934 5.0625,11.0220928 C2.59889061,9.93667847 0.9375,7.48206869 0.9375,4.69457701 L0.9375,2.68895966 L5.0625,0.97628784 L9.1875,2.68895966 L9.1875,4.69457701 Z M4.54439723,6.27457986 L6.5591788,4.25982206 C6.74222554,4.07677524 7.0390147,4.07675163 7.22208486,4.25982206 C7.40515503,4.44289249 7.4051316,4.73968141 7.22206143,4.92272824 L4.87584997,7.26893902 C4.69275623,7.45203301 4.39596698,7.45196208 4.21294367,7.26893902 L2.90292801,5.95892348 C2.71985757,5.77585321 2.71985757,5.47906412 2.90292801,5.29601739 C3.08599845,5.11297052 3.38278745,5.11294695 3.56583424,5.29601739 L4.54439723,6.27457986 Z" id="Shape"></path>
                        </g>
                    </g>
                </g>
            </g>
        </g>
    </g>
</svg>