<?xml version="1.0" encoding="UTF-8"?>
<svg width="14px" height="13px" viewBox="0 0 14 13" version="1.1" xmlns="http://www.w3.org/2000/svg" xmlns:xlink="http://www.w3.org/1999/xlink">
    <title>settings_icon</title>
    <g id="New-UI" stroke="none" stroke-width="1" fill="none" fill-rule="evenodd">
        <g id="02_Open5GCloud_Cluster_Screen" transform="translate(-22.000000, -644.000000)" fill="#1F263E">
            <g id="sidebar" transform="translate(0.000000, 12.000000)">
                <g id="menu-side-bar" transform="translate(0.000000, 57.000000)">
                    <g id="setting" transform="translate(22.409179, 573.000000)">
                        <g id="settings_icon" transform="translate(0.000000, 2.800049)">
                            <path d="M6.0055485,3.8182373 C4.80056371,3.8182373 3.8237305,4.79507074 3.8237305,6.0000558 C3.8237305,7.20504082 4.80056371,8.1818743 6.0055485,8.1818743 C7.21053324,8.1818743 8.1873665,7.20504082 8.1873665,6.0000558 C8.1873665,4.79507074 7.21053324,3.8182373 6.0055485,3.8182373 Z M6.00572615,7.3637476 C5.25261066,7.3637476 4.6420899,6.7532267 4.6420899,6.0001111 C4.6420899,5.24699547 5.25261066,4.6364746 6.00572615,4.6364746 C6.75884161,4.6364746 7.3693624,5.24699547 7.3693624,6.0001111 C7.3693624,6.7532267 6.75884161,7.3637476 6.00572615,7.3637476 L6.00572615,7.3637476 Z" id="Shape"></path>
                            <path d="M11.1872729,4.36363644 L10.3418178,4.36363644 C10.3072725,4.27090896 10.2690912,4.17999996 10.2272729,4.0909092 L10.8245454,3.4936362 C11.1435856,3.1741992 11.1435856,2.65671 10.8245454,2.33727264 L9.66818192,1.18090913 C9.34874471,0.86186904 8.83125566,0.86186904 8.51181832,1.18090913 L7.91454525,1.77818172 C7.82545433,1.73818176 7.73454568,1.70000004 7.64181798,1.66363644 L7.64181798,0.81818184 C7.64181798,0.36631248 7.27550531,0 6.82363642,0 L5.18727282,0 C4.73540333,0 4.36909066,0.36631248 4.36909066,0.81818184 L4.36909066,1.66363644 C4.27636368,1.6981818 4.18545443,1.73636364 4.09636351,1.77818172 L3.49909104,1.18090913 C3.17965334,0.86186904 2.66216453,0.86186904 2.34272732,1.18090913 L1.18636366,2.33727264 C0.867323593,2.65671 0.867323593,3.1741992 1.18636366,3.4936362 L1.77818169,4.0909092 C1.73818176,4.17999996 1.70000004,4.27090896 1.66363641,4.36363644 L0.8181818,4.36363644 C0.366312486,4.36363644 0,4.72994904 0,5.1818184 L0,6.8181816 C0,7.2700512 0.366312486,7.6363632 0.8181818,7.6363632 L1.66363641,7.6363632 C1.69818171,7.7290908 1.73636367,7.81999968 1.77818169,7.90909128 L1.18090909,8.5063632 C0.861869079,8.8258008 0.861869079,9.34329 1.18090909,9.6627276 L2.33727281,10.8190908 C2.65671002,11.1381312 3.17419895,11.1381312 3.49363652,10.8190908 L4.090909,10.2218184 C4.17999992,10.2618184 4.27090917,10.3000002 4.36363627,10.3363638 L4.36363627,11.1818184 C4.36363627,11.6336875 4.72994881,12 5.18181843,12 L6.81818179,12 C7.27005068,12 7.63636347,11.6336875 7.63636347,11.1818184 L7.63636347,10.3363638 C7.72909117,10.3018183 7.81999981,10.2636366 7.90909073,10.2218184 L8.50636357,10.8190908 C8.8258009,11.1381312 9.34329019,11.1381312 9.66272741,10.8190908 L10.819091,9.6627276 C11.1381309,9.34329 11.1381309,8.8258008 10.819091,8.5063632 L10.2327276,7.90909128 C10.2727275,7.81999968 10.310909,7.7290908 10.3472723,7.6363632 L11.1927271,7.6363632 C11.6445967,7.6363632 12.010909,7.2700512 12.010909,6.8181816 L12.010909,5.1818184 C12.010909,4.9638744 11.9239644,4.7549358 11.7693437,4.60133928 C11.6147232,4.44774276 11.4052121,4.3621836 11.1872729,4.36363644 Z M11.1873665,6.8182373 L9.73373034,6.8182373 C9.63686734,7.25831989 9.46231801,7.67760788 9.21827563,8.05641964 L10.2464571,9.08460125 L9.09009362,10.2409649 L8.05100314,9.21278327 C7.67219141,9.45682568 7.25290326,9.63137502 6.81282131,9.72823803 L6.81282131,11.1818743 L5.17645759,11.1818743 L5.17645759,9.72823803 C4.73637511,9.63137502 4.31708727,9.45682568 3.93827586,9.21278327 L2.91009404,10.2409649 L1.75373042,9.08460125 L2.78191213,8.05641964 C2.53786985,7.67760788 2.36332042,7.25831989 2.26645763,6.8182373 L0.82373047,6.8182373 L0.82373047,5.18187392 L2.2773668,5.18187392 C2.3742296,4.7417914 2.54877893,4.32250372 2.79282131,3.94369196 L1.76463954,2.91551015 L2.92100311,1.75914646 L3.94918483,2.78732833 C4.32799656,2.54328592 4.74728419,2.36873658 5.18736666,2.27187377 L5.18736666,0.8182373 L6.82373047,0.8182373 L6.82373047,2.27187377 C7.26381244,2.36873658 7.68310038,2.54328592 8.06191211,2.78732833 L9.09009362,1.75914646 L10.2464571,2.91551015 L9.21827563,3.94369196 C9.46231801,4.32250372 9.63686734,4.7417914 9.73373034,5.18187392 L11.1873665,5.18187392 L11.1873665,6.8182373 Z" id="Shape"></path>
                        </g>
                    </g>
                </g>
            </g>
        </g>
    </g>
</svg>