<?xml version="1.0" encoding="UTF-8"?>
<svg width="14px" height="10px" viewBox="0 0 14 10" version="1.1" xmlns="http://www.w3.org/2000/svg" xmlns:xlink="http://www.w3.org/1999/xlink">
    <title>site_network_icon</title>
    <defs>
        <path d="M9.68071691,0.163263816 C9.89851428,-0.0544677696 10.2515803,-0.0544144563 10.4693119,0.163382904 C12.8638482,2.5586424 12.8638482,6.4413576 10.4693119,8.83661697 C10.2515803,9.054414 9.89851428,9.054468 9.68071691,8.83673604 C9.46291954,8.6190048 9.46286623,8.2659384 9.68059783,8.04814146 C11.6397638,6.0883839 11.6397638,2.91161646 9.68059783,0.95185872 C9.46286623,0.73406142 9.46291954,0.380995416 9.68071691,0.163263816 Z M1.79590225,0.163382904 C2.01363386,-0.0544144563 2.36669989,-0.0544677696 2.58449729,0.163263816 C2.80229455,0.380995416 2.80234813,0.73406142 2.58461641,0.95185872 C0.625450233,2.91161646 0.625450233,6.0883839 2.58461641,8.04814146 C2.80234813,8.2659384 2.80229455,8.6190048 2.58449729,8.83673604 C2.36669989,9.054468 2.01363386,9.054414 1.79590225,8.83661697 C-0.598634083,6.4413576 -0.598634083,2.5586424 1.79590225,0.163382904 Z M8.10255709,1.74117944 C8.32020039,1.52329388 8.67326629,1.52309748 8.89115187,1.74074079 C9.62411053,2.4728845 10.035951,3.46637373 10.035951,4.5023577 C10.035951,5.53834167 9.62411053,6.53183096 8.89115187,7.26397461 C8.67326629,7.48161773 8.32020039,7.48142119 8.10255709,7.26353591 C7.88491378,7.04565027 7.88511017,6.69258451 8.10299574,6.47494104 C8.62653766,5.95198162 8.92070939,5.24234633 8.92070939,4.5023577 C8.92070939,3.76236907 8.62653766,3.05273407 8.10299574,2.52977418 C7.88511017,2.31213089 7.88491378,1.95906501 8.10255709,1.74117944 Z M3.3742916,1.73524769 C3.59217723,1.51760438 3.9452433,1.51780078 4.16288653,1.73568634 C4.38052985,1.95357191 4.38033341,2.30663779 4.16244788,2.52428108 C3.63890588,3.04724097 3.34473401,3.75687597 3.34473401,4.4968646 C3.34473401,5.23685323 3.63890588,5.94648852 4.16244788,6.46944794 C4.38033341,6.68709141 4.38052985,7.04015717 4.16288653,7.25804281 C3.9452433,7.47592809 3.59217723,7.47612463 3.3742916,7.25848151 C2.64133277,6.52633786 2.2294922,5.53284857 2.2294922,4.4968646 C2.2294922,3.46088063 2.64133277,2.4673914 3.3742916,1.73524769 Z M6.1325805,2.8278809 C7.05647745,2.8278809 7.805444,3.57684708 7.805444,4.50074365 C7.805444,5.42464019 7.05647745,6.1736064 6.1325805,6.1736064 C5.20868352,6.1736064 4.459717,5.42464019 4.459717,4.50074365 C4.459717,3.57684708 5.20868352,2.8278809 6.1325805,2.8278809 Z M6.132572,3.9418945 C5.82460643,3.9418945 5.574951,4.19155004 5.574951,4.49951575 C5.574951,4.80748145 5.82460643,5.057137 6.132572,5.057137 C6.44053756,5.057137 6.690193,4.80748145 6.690193,4.49951575 C6.690193,4.19155004 6.44053756,3.9418945 6.132572,3.9418945 Z" id="path-1"></path>
    </defs>
    <g id="New-UI" stroke="none" stroke-width="1" fill="none" fill-rule="evenodd">
        <g id="02_Open5GCloud_Cluster_Screen" transform="translate(-22.000000, -553.000000)">
            <g id="sidebar" transform="translate(0.000000, 12.000000)">
                <g id="menu-side-bar" transform="translate(0.000000, 57.000000)">
                    <g id="site_network_icon" transform="translate(22.409667, 484.799930)">
                        <mask id="mask-2" fill="white">
                            <use xlink:href="#path-1"></use>
                        </mask>
                        <use id="Combined-Shape" fill="#1F263E" xlink:href="#path-1"></use>
                    </g>
                </g>
            </g>
        </g>
    </g>
</svg>