<?xml version="1.0" encoding="utf-8"?>
<svg width="13px" height="13px" viewBox="0 0 13 13" version="1.1" xmlns:xlink="http://www.w3.org/1999/xlink" xmlns="http://www.w3.org/2000/svg">
  <g id="vuesaxlinearformat-circle" transform="translate(0.5 0.5)">
    <g id="format-circle">
      <path d="M11.311 3.21473C11.0078 3.45473 10.6226 3.59999 10.1994 3.59999C9.20152 3.59999 8.39941 2.79789 8.39941 1.8C8.39941 1.37684 8.54468 0.997892 8.78468 0.688419L8.79099 0.688419C9.1131 0.271578 9.62467 0 10.1994 0C11.1973 0 11.9994 0.802103 11.9994 1.8C11.9994 2.37473 11.7278 2.88631 11.311 3.21473Z" id="Vector" fill="none" fill-rule="evenodd" stroke="#1F263E" stroke-width="1" stroke-linecap="round" stroke-linejoin="round" />
      <path d="M1.8 3.59999C1.37684 3.59999 0.997892 3.45473 0.688419 3.21473C0.271578 2.88631 0 2.37473 0 1.8C0 0.802103 0.802103 0 1.8 0C2.37473 0 2.88631 0.271578 3.21473 0.688419C3.45473 0.997892 3.59999 1.37684 3.59999 1.8C3.59999 2.79789 2.79789 3.59999 1.8 3.59999Z" id="Vector" fill="none" fill-rule="evenodd" stroke="#1F263E" stroke-width="1" stroke-linecap="round" stroke-linejoin="round" />
      <path d="M10.1994 12C9.62467 12 9.1131 11.7284 8.79099 11.3116L8.78468 11.3116C8.54468 11.0084 8.39941 10.6232 8.39941 10.2C8.39941 9.20211 9.20152 8.40001 10.1994 8.40001C10.6226 8.40001 11.0015 8.54527 11.311 8.78527L11.311 8.79159C11.7278 9.11369 11.9994 9.62527 11.9994 10.2C11.9994 11.1979 11.1973 12 10.1994 12Z" id="Vector" fill="none" fill-rule="evenodd" stroke="#1F263E" stroke-width="1" stroke-linecap="round" stroke-linejoin="round" />
      <path d="M3.21473 11.3116C2.88631 11.7347 2.37473 12 1.8 12C0.802103 12 0 11.1979 0 10.2C0 9.62527 0.271578 9.11369 0.688419 8.79159L0.688419 8.78527C0.991576 8.54527 1.37684 8.40001 1.8 8.40001C2.79789 8.40001 3.59999 9.20211 3.59999 10.2C3.59999 10.6232 3.45473 11.0021 3.21473 11.3116Z" id="Vector" fill="none" fill-rule="evenodd" stroke="#1F263E" stroke-width="1" stroke-linecap="round" stroke-linejoin="round" />
      <path d="M11.3115 8.78524C11.0084 8.54524 10.6231 8.39998 10.2 8.39998C9.20208 8.39998 8.39998 9.20208 8.39998 10.2C8.39998 10.6231 8.54524 11.0021 8.78524 11.3116C7.95156 11.7537 7.01051 12 5.99998 12C4.99578 12 4.04841 11.7537 3.21473 11.3116C3.45473 11.0084 3.59999 10.6231 3.59999 10.2C3.59999 9.20208 2.79789 8.39998 1.8 8.39998C1.37684 8.39998 0.997892 8.54524 0.688419 8.78524C0.246315 7.95156 0 7.01051 0 5.99999C0 4.99578 0.246315 4.04841 0.688419 3.21473C0.997892 3.45473 1.37684 3.59999 1.8 3.59999C2.79789 3.59999 3.59999 2.79789 3.59999 1.8C3.59999 1.37684 3.45473 0.997892 3.21473 0.688419C4.04841 0.246315 4.99578 0 5.99998 0C7.01051 0 7.95156 0.246315 8.78524 0.688419C8.54524 0.991576 8.39998 1.37684 8.39998 1.8C8.39998 2.79789 9.20208 3.59999 10.2 3.59999C10.6231 3.59999 11.0021 3.45473 11.3115 3.21473C11.7537 4.04841 12 4.99578 12 5.99999C12 7.01051 11.7537 7.95156 11.3115 8.78524Z" id="Vector" fill="none" fill-rule="evenodd" stroke="#1F263E" stroke-width="1" stroke-linecap="round" stroke-linejoin="round" />
    </g>
  </g>
</svg>