<?xml version="1.0" standalone="no"?>
<!DOCTYPE svg PUBLIC "-//W3C//DTD SVG 20010904//EN"
 "http://www.w3.org/TR/2001/REC-SVG-20010904/DTD/svg10.dtd">
<svg version="1.0" xmlns="http://www.w3.org/2000/svg"
 width="50.000000pt" height="50.000000pt" viewBox="0 0 50.000000 50.000000"
 preserveAspectRatio="xMidYMid meet">

<g transform="translate(0.000000,50.000000) scale(0.100000,-0.100000)"
fill="#000000" stroke="none">
<path d="M216 444 c-19 -18 -21 -57 -5 -86 10 -18 8 -24 -15 -41 -48 -35 -34
-47 54 -47 88 0 102 12 54 47 -23 17 -25 23 -15 41 18 33 13 69 -11 86 -28 20
-43 20 -62 0z m45 -14 c20 -11 26 -54 9 -65 -17 -11 -11 -42 13 -58 21 -15 20
-16 -33 -16 -53 0 -54 1 -32 16 23 16 29 47 12 58 -11 7 -14 58 -3 68 8 9 11
9 34 -3z"/>
<path d="M70 310 c0 -33 4 -60 10 -60 6 0 10 23 10 50 l0 50 45 0 c25 0 45 5
45 10 0 6 -25 10 -55 10 l-55 0 0 -60z"/>
<path d="M320 360 c0 -5 20 -10 45 -10 l45 0 0 -50 c0 -27 5 -50 10 -50 6 0
10 27 10 60 l0 60 -55 0 c-30 0 -55 -4 -55 -10z"/>
<path d="M46 214 c-19 -18 -21 -57 -5 -86 10 -18 8 -24 -15 -41 -48 -35 -34
-47 54 -47 88 0 102 12 54 47 -23 17 -25 23 -15 41 18 33 13 69 -11 86 -28 20
-43 20 -62 0z m45 -14 c20 -11 26 -54 9 -65 -17 -11 -11 -42 13 -58 21 -15 20
-16 -33 -16 -53 0 -54 1 -32 16 23 16 29 47 12 58 -11 7 -14 58 -3 68 8 9 11
9 34 -3z"/>
<path d="M216 214 c-19 -18 -21 -57 -5 -86 10 -18 8 -24 -15 -41 -48 -35 -34
-47 54 -47 88 0 102 12 54 47 -23 17 -25 23 -15 41 18 33 13 69 -11 86 -28 20
-43 20 -62 0z m45 -14 c20 -11 26 -54 9 -65 -17 -11 -11 -42 13 -58 21 -15 20
-16 -33 -16 -53 0 -54 1 -32 16 23 16 29 47 12 58 -11 7 -14 58 -3 68 8 9 11
9 34 -3z"/>
<path d="M386 214 c-19 -18 -21 -57 -5 -86 10 -18 8 -24 -15 -41 -48 -35 -34
-47 54 -47 88 0 102 12 54 47 -23 17 -25 23 -15 41 18 33 13 69 -11 86 -28 20
-43 20 -62 0z m45 -14 c20 -11 26 -54 9 -65 -17 -11 -11 -42 13 -58 21 -15 20
-16 -33 -16 -53 0 -54 1 -32 16 23 16 29 47 12 58 -11 7 -14 58 -3 68 8 9 11
9 34 -3z"/>
</g>
</svg>
