<?xml version="1.0" encoding="UTF-8"?>
<svg width="14px" height="13px" viewBox="0 0 14 13" version="1.1" xmlns="http://www.w3.org/2000/svg" xmlns:xlink="http://www.w3.org/1999/xlink">
    <title>workloads_icon</title>
    <g id="New-UI" stroke="none" stroke-width="1" fill="none" fill-rule="evenodd">
        <g id="02_Open5GCloud_Cluster_Screen" transform="translate(-22.000000, -259.000000)" fill="#131725">
            <g id="sidebar" transform="translate(0.000000, 12.000000)">
                <g id="menu-side-bar" transform="translate(0.000000, 57.000000)">
                    <g id="user-management" transform="translate(22.203125, 188.000000)">
                        <g id="workloads_icon" transform="translate(0.000000, 2.479980)">
                            <path d="M11.5303836,3.6103038 C11.7838742,3.2103 11.8123801,2.70762276 11.605737,2.28152544 C11.3990928,1.85542824 10.9867158,1.56656496 10.5156568,1.5179436 L10.3789018,1.5179436 L10.3789018,1.5179436 C10.2709875,1.51894476 10.1635704,1.5327162 10.0588936,1.5589704 C7.94894839,-0.35354256 4.78723515,-0.525095076 2.48274325,1.14789336 C0.17825141,2.82088176 -0.637915619,5.88025008 0.527030303,8.4788028 C0.238385509,8.87481 0.183691206,9.3949914 0.383657818,9.8423736 C0.58362449,10.289757 1.00768283,10.5959501 1.49525978,10.6450104 L1.63201536,10.6450104 C1.7905901,10.6448244 1.94792407,10.6170595 2.09698423,10.5629575 C4.22400698,12.375216 7.31875306,12.4846704 9.56849153,10.8272081 C11.8182312,9.169746 12.6308586,6.1815912 11.5303836,3.61303884 L11.5303836,3.6103038 Z M10.9228712,2.93201023 C10.8946766,3.21257865 10.6578273,3.42574339 10.3758495,3.4243373 L10.3211473,3.4243373 C10.0190356,3.40922461 9.78637125,3.15206889 9.80147683,2.84995687 C9.81658242,2.54784483 10.0737378,2.31518011 10.3758495,2.33028563 L10.4305517,2.33028563 C10.575925,2.34408919 10.7097447,2.41544438 10.8022147,2.52846334 C10.8946846,2.6414823 10.9381279,2.78678201 10.9228712,2.93201023 L10.9228712,2.93201023 Z M5.99991819,0.798584 C7.21449611,0.798305243 8.39026222,1.22638477 9.32034416,2.00750339 C8.90554087,2.51213401 8.90554087,3.23966843 9.32034416,3.74429897 L9.32034416,3.74429897 L7.90629144,6.28795232 C7.86211579,6.27654663 7.8173832,6.2674172 7.7722711,6.26060166 L7.6355151,6.26060166 L7.6355151,6.26060166 C7.34711573,6.26526669 7.06757523,6.36100002 6.83686233,6.53411262 L5.52127381,5.21852433 C5.75868149,4.81734145 5.77537931,4.32285898 5.56557634,3.90657473 C5.35577337,3.49029049 4.94837131,3.20954999 4.48466655,3.16172046 L4.34791098,3.16172046 L4.34791098,3.16172046 C3.81909325,3.16136753 3.33746628,3.46593129 3.11108666,3.94384383 C2.88470696,4.42175651 2.95415211,4.98735445 3.28942246,5.39630619 L3.28942246,5.39630619 L1.87536983,7.9399599 C1.83119426,7.92855349 1.7864618,7.91942478 1.7413494,7.91260874 L1.60459375,7.91260874 L1.60459375,7.91260874 C1.46225207,7.91438871 1.32106104,7.93838204 1.18612167,7.9837217 C0.93054278,7.35233455 0.803165691,6.67639955 0.811411363,5.99529592 C0.811411363,3.12523117 3.13805887,0.798584 6.00812371,0.798584 L5.99991819,0.798584 Z M8.18800919,7.69104321 C8.15981453,7.97161153 7.92296489,8.18477619 7.64098696,8.1833701 L7.58628476,8.1833701 C7.28417281,8.16825741 7.05150824,7.91110179 7.06661383,7.60898988 C7.08171943,7.30687795 7.33887501,7.07421331 7.64098696,7.08931883 L7.6956892,7.08931883 C7.84204813,7.10174836 7.97725906,7.17251632 8.07088764,7.28569371 C8.1645162,7.3988711 8.20869474,7.54494758 8.19347937,7.69104321 L8.18800919,7.69104321 Z M4.90627082,4.57580891 C4.87807617,4.85637723 4.64122657,5.06954189 4.35924866,5.0681358 L4.30454651,5.0681358 C4.00243455,5.05302325 3.76976994,4.79586754 3.78487553,4.49375555 C3.79998113,4.19164358 4.05713677,3.95897893 4.35924866,3.97408453 L4.41395092,3.97408453 C4.55879934,3.98791279 4.69216968,4.05888074 4.78456159,4.17129086 C4.8769535,4.28370097 4.92075254,4.42828918 4.90627082,4.57307381 L4.90627082,4.57580891 Z M1.62389745,9.82716128 L1.5691952,9.82716128 C1.26708308,9.81205567 1.03441833,9.5549002 1.04952393,9.25278846 C1.06462954,8.95067672 1.32178533,8.71801225 1.62389745,8.73311783 L1.67859966,8.73311783 C1.98071176,8.74822342 2.21337666,9.00537888 2.19827097,9.30749067 C2.18316533,9.60960239 1.92600956,9.84226689 1.62389745,9.82716128 L1.62389745,9.82716128 Z M6.00013081,11.1947675 C4.81739734,11.1954697 3.6703047,10.7899314 2.75081877,10.04602 C3.11594864,9.51823096 3.0575539,8.80604417 2.6113281,8.34478062 L4.00349969,5.83941912 C4.07333625,5.85965447 4.14467521,5.87428802 4.2168383,5.88318089 L4.35359392,5.88318089 C4.54247837,5.88037556 4.7287332,5.83846812 4.90061617,5.76010086 L6.33381445,7.19329902 C6.19547946,7.59248338 6.24940835,8.03319472 6.47991518,8.38724445 C6.71042202,8.74129445 7.0916261,8.96893123 7.51264709,9.00394253 L7.64940246,9.00394253 C8.19267457,8.99989187 8.68202836,8.67464061 8.89611103,8.17531196 C9.1101937,7.67598288 9.00840124,7.09728286 8.63677791,6.70097904 L10.0289495,4.19561728 C10.0987862,4.21585265 10.1701252,4.2304863 10.2422881,4.23937906 L10.3790437,4.23937906 C10.5434603,4.23937906 10.7065292,4.20973012 10.860423,4.1518555 C11.0862202,4.73834632 11.2021149,5.36139521 11.2023151,5.98985009 C11.2037635,7.36857738 10.6572711,8.69137218 9.68313255,9.66704952 C8.70899461,10.6427265 7.38706379,11.1913066 6.00833615,11.1920313 L6.00013081,11.1947675 Z" id="Shape"></path>
                        </g>
                    </g>
                </g>
            </g>
        </g>
    </g>
</svg>